<svg width="34" height="34" viewBox="0 0 34 34" fill="none" xmlns="http://www.w3.org/2000/svg">
<circle cx="17" cy="17" r="17" fill="#FF6C00"/>
<path d="M17 10L17.3536 9.64645C17.1583 9.45118 16.8417 9.45118 16.6464 9.64645L17 10ZM21.6464 15.3536C21.8417 15.5488 22.1583 15.5488 22.3536 15.3536C22.5488 15.1583 22.5488 14.8417 22.3536 14.6464L21.6464 15.3536ZM11.6464 14.6464C11.4512 14.8417 11.4512 15.1583 11.6464 15.3536C11.8417 15.5488 12.1583 15.5488 12.3536 15.3536L11.6464 14.6464ZM16.5 24C16.5 24.2761 16.7239 24.5 17 24.5C17.2761 24.5 17.5 24.2761 17.5 24H16.5ZM16.6464 10.3536L21.6464 15.3536L22.3536 14.6464L17.3536 9.64645L16.6464 10.3536ZM16.6464 9.64645L11.6464 14.6464L12.3536 15.3536L17.3536 10.3536L16.6464 9.64645ZM16.5 10V17H17.5V10H16.5ZM16.5 17V24H17.5V17H16.5Z" fill="white"/>
</svg>
