<svg width="24" height="24" viewBox="0 0 24 24" fill="none" xmlns="http://www.w3.org/2000/svg">
<path d="M3 6H5H21" />
<path d="M19.5 6C19.5 5.72386 19.2761 5.5 19 5.5C18.7239 5.5 18.5 5.72386 18.5 6H19.5ZM5.5 6C5.5 5.72386 5.27614 5.5 5 5.5C4.72386 5.5 4.5 5.72386 4.5 6H5.5ZM7.5 6C7.5 6.27614 7.72386 6.5 8 6.5C8.27614 6.5 8.5 6.27614 8.5 6H7.5ZM15.5 6C15.5 6.27614 15.7239 6.5 16 6.5C16.2761 6.5 16.5 6.27614 16.5 6H15.5ZM18.5 6V20H19.5V6H18.5ZM18.5 20C18.5 20.8284 17.8284 21.5 17 21.5V22.5C18.3807 22.5 19.5 21.3807 19.5 20H18.5ZM17 21.5H7V22.5H17V21.5ZM7 21.5C6.17157 21.5 5.5 20.8284 5.5 20H4.5C4.5 21.3807 5.61929 22.5 7 22.5V21.5ZM5.5 20V6H4.5V20H5.5ZM8.5 6V4H7.5V6H8.5ZM8.5 4C8.5 3.17157 9.17157 2.5 10 2.5V1.5C8.61929 1.5 7.5 2.61929 7.5 4H8.5ZM10 2.5H14V1.5H10V2.5ZM14 2.5C14.8284 2.5 15.5 3.17157 15.5 4H16.5C16.5 2.61929 15.3807 1.5 14 1.5V2.5ZM15.5 4V6H16.5V4H15.5Z" />
<path d="M10 11V17" />
<path d="M14 11V17" />
</svg>
